<svg width="24" height="24" viewBox="0 0 24 24" fill="none" xmlns="http://www.w3.org/2000/svg">
<path fill-rule="evenodd" clip-rule="evenodd" d="M1.05195 0C0.470972 0 0 0.488417 0 1.09091C0 1.6934 0.470972 2.18182 1.05195 2.18182H3.37303L6.29613 15.1734C6.73123 17.1071 8.36808 18.487 10.2719 18.5436V18.5455H18.501C20.551 18.5455 22.3027 17.0133 22.6485 14.9178L23.9693 6.91346C24.1892 5.58078 23.1993 4.36364 21.8956 4.36364H6.02435L5.23221 0.843022C5.12112 0.349289 4.69667 0 4.20778 0H1.05195ZM6.51526 6.54545L8.34498 14.6776C8.56716 15.6651 9.41606 16.3636 10.3938 16.3636H18.501C19.526 16.3636 20.4019 15.5976 20.5748 14.5498L21.8956 6.54545H6.51526Z" fill="black"/>
<path d="M8.41557 24C9.57751 24 10.5195 23.0232 10.5195 21.8182C10.5195 20.6132 9.57751 19.6364 8.41557 19.6364C7.25362 19.6364 6.31168 20.6132 6.31168 21.8182C6.31168 23.0232 7.25362 24 8.41557 24Z" fill="black"/>
<path d="M19.987 24C21.1489 24 22.0909 23.0232 22.0909 21.8182C22.0909 20.6132 21.1489 19.6364 19.987 19.6364C18.825 19.6364 17.8831 20.6132 17.8831 21.8182C17.8831 23.0232 18.825 24 19.987 24Z" fill="black"/>
</svg>
