<svg width="29" height="29" viewBox="0 0 29 29" fill="none" xmlns="http://www.w3.org/2000/svg">
<path d="M2.34473 7.03467C2.34473 6.38719 2.86961 5.8623 3.51709 5.8623H24.6197C25.2672 5.8623 25.7921 6.38719 25.7921 7.03467C25.7921 7.68215 25.2672 8.20704 24.6197 8.20704H3.51709C2.86961 8.20704 2.34473 7.68215 2.34473 7.03467Z" fill="black"/>
<path d="M2.34473 14.0689C2.34473 13.4214 2.86961 12.8965 3.51709 12.8965H24.6197C25.2672 12.8965 25.7921 13.4214 25.7921 14.0689C25.7921 14.7164 25.2672 15.2413 24.6197 15.2413H3.51709C2.86961 15.2413 2.34473 14.7164 2.34473 14.0689Z" fill="black"/>
<path d="M3.51709 19.9307C2.86961 19.9307 2.34473 20.4556 2.34473 21.1031C2.34473 21.7506 2.86961 22.2755 3.51709 22.2755H24.6197C25.2672 22.2755 25.7921 21.7506 25.7921 21.1031C25.7921 20.4556 25.2672 19.9307 24.6197 19.9307H3.51709Z" fill="black"/>
</svg>
