<svg width="23" height="21" viewBox="0 0 23 21" fill="none" xmlns="http://www.w3.org/2000/svg">
<path fill-rule="evenodd" clip-rule="evenodd" d="M0.958496 7.14584C0.958496 3.99747 3.17544 0.916672 6.7085 0.916672C8.34612 0.916672 9.51523 1.37787 10.4124 2.07424C10.838 2.40464 11.1937 2.78474 11.4976 3.15571C11.7982 2.78553 12.1504 2.4055 12.5722 2.07603C13.4678 1.37647 14.6387 0.916672 16.2918 0.916672C19.8653 0.916672 22.0418 4.00263 22.0418 7.14584C22.0418 10.3478 20.4374 13.0869 18.4275 15.2243C16.4144 17.365 13.9181 18.9875 11.9287 19.9822C11.6589 20.1171 11.3414 20.1171 11.0716 19.9822C9.08227 18.9875 6.58593 17.365 4.57286 15.2243C2.56289 13.0869 0.958496 10.3478 0.958496 7.14584ZM6.7085 2.83334C4.49156 2.83334 2.87516 4.77862 2.87516 7.14584C2.87516 9.68016 4.14577 11.9723 5.96913 13.9113C7.65082 15.6996 9.738 17.1151 11.5002 18.0473C13.2623 17.1151 15.3495 15.6996 17.0312 13.9113C18.8545 11.9723 20.1252 9.68016 20.1252 7.14584C20.1252 4.77347 18.5403 2.83334 16.2918 2.83334C15.034 2.83334 14.286 3.1694 13.752 3.58652C13.2571 3.97313 12.9124 4.44432 12.5016 5.00591C12.4268 5.10817 12.3498 5.21342 12.2693 5.32171C12.0885 5.56496 11.8033 5.70834 11.5002 5.70834C11.1971 5.70834 10.9118 5.56496 10.731 5.32171C10.6622 5.22914 10.5957 5.13861 10.5307 5.05014C10.1072 4.4738 9.748 3.98486 9.23712 3.58831C8.69564 3.168 7.94587 2.83334 6.7085 2.83334Z" fill="black"/>
</svg>
