<svg width="23" height="20" viewBox="0 0 23 20" fill="none" xmlns="http://www.w3.org/2000/svg">
<path fill-rule="evenodd" clip-rule="evenodd" d="M0.958008 6.64582C0.958008 3.49746 3.17495 0.416656 6.70801 0.416656C8.34564 0.416656 9.51475 0.87785 10.4119 1.57422C10.8375 1.90462 11.1932 2.28472 11.4972 2.6557C11.7977 2.28551 12.1499 1.90549 12.5717 1.57602C13.4673 0.876458 14.6382 0.416656 16.2913 0.416656C19.8648 0.416656 22.0413 3.50261 22.0413 6.64582C22.0413 9.84777 20.437 12.5869 18.427 14.7243C16.4139 16.865 13.9176 18.4875 11.9283 19.4821C11.6585 19.617 11.3409 19.617 11.0711 19.4821C9.08178 18.4875 6.58544 16.865 4.57237 14.7243C2.5624 12.5869 0.958008 9.84777 0.958008 6.64582ZM6.70801 2.33332C4.49107 2.33332 2.87467 4.27861 2.87467 6.64582C2.87467 9.18014 4.14528 11.4723 5.96864 13.4112C7.65034 15.1995 9.73751 16.6151 11.4997 17.5473C13.2618 16.6151 15.349 15.1995 17.0307 13.4112C18.8541 11.4723 20.1247 9.18014 20.1247 6.64582C20.1247 4.27345 18.5398 2.33332 16.2913 2.33332C15.0335 2.33332 14.2855 2.66938 13.7515 3.0865C13.2566 3.47311 12.9119 3.9443 12.5011 4.5059C12.4263 4.60815 12.3493 4.71341 12.2688 4.8217C12.088 5.06495 11.8028 5.20832 11.4997 5.20832C11.1966 5.20832 10.9114 5.06495 10.7305 4.8217C10.6617 4.72913 10.5952 4.6386 10.5302 4.55012C10.1068 3.97379 9.74751 3.48485 9.23663 3.08829C8.69516 2.66799 7.94538 2.33332 6.70801 2.33332Z" fill="#222222"/>
</svg>
