<svg width="25" height="25" viewBox="0 0 25 25" fill="none" xmlns="http://www.w3.org/2000/svg">
<g clip-path="url(#clip0_654_2742)">
<path fill-rule="evenodd" clip-rule="evenodd" d="M12.5001 6.08106C8.95496 6.08106 6.08114 8.95488 6.08114 12.5C6.08114 16.045 8.95496 18.9188 12.5001 18.9188C16.0451 18.9188 18.9189 16.045 18.9189 12.5C18.9189 8.95488 16.0451 6.08106 12.5001 6.08106ZM12.5001 16.6666C10.1989 16.6666 8.33338 14.8011 8.33338 12.5C8.33338 10.1988 10.1989 8.3333 12.5001 8.3333C14.8012 8.3333 16.6667 10.1988 16.6667 12.5C16.6667 14.8011 14.8012 16.6666 12.5001 16.6666Z" fill="#3F8DA1"/>
<path d="M19.1725 7.32744C20.0009 7.32744 20.6725 6.65591 20.6725 5.82744C20.6725 4.99902 20.0009 4.32749 19.1725 4.32749C18.3441 4.32749 17.6725 4.99902 17.6725 5.82744C17.6725 6.65591 18.3441 7.32744 19.1725 7.32744Z" fill="#3F8DA1"/>
<path fill-rule="evenodd" clip-rule="evenodd" d="M12.5 0C9.10517 0 8.67949 0.0144043 7.34624 0.0752441C6.01577 0.135937 5.10708 0.347217 4.31196 0.65625C3.48999 0.975684 2.79287 1.40312 2.098 2.09805C1.40308 2.79292 0.975635 3.49004 0.656201 4.31201C0.347168 5.10708 0.135889 6.01577 0.0751953 7.34624C0.0143555 8.67949 0 9.10517 0 12.5C0 15.8947 0.0143555 16.3204 0.0751953 17.6537C0.135889 18.9841 0.347168 19.8928 0.656201 20.6879C0.975635 21.5099 1.40308 22.207 2.098 22.902C2.79287 23.5968 3.48999 24.0243 4.31196 24.3437C5.10708 24.6527 6.01577 24.864 7.34624 24.9247C8.67949 24.9855 9.10517 24.9999 12.5 24.9999C15.8947 24.9999 16.3204 24.9855 17.6537 24.9247C18.9841 24.864 19.8928 24.6527 20.6879 24.3437C21.5099 24.0243 22.207 23.5968 22.902 22.902C23.5968 22.207 24.0243 21.5099 24.3437 20.6879C24.6527 19.8928 24.864 18.9841 24.9247 17.6537C24.9855 16.3204 24.9999 15.8947 24.9999 12.5C24.9999 9.10517 24.9855 8.67949 24.9247 7.34624C24.864 6.01577 24.6527 5.10708 24.3437 4.31201C24.0243 3.49004 23.5968 2.79292 22.902 2.09805C22.207 1.40312 21.5099 0.975684 20.6879 0.65625C19.8928 0.347217 18.9841 0.135937 17.6537 0.0752441C16.3204 0.0144043 15.8947 0 12.5 0ZM12.5 2.25229C15.8376 2.25229 16.233 2.26499 17.551 2.32515C18.7697 2.38076 19.4316 2.58437 19.8721 2.75552C20.4555 2.98228 20.8719 3.25317 21.3093 3.69058C21.7468 4.12798 22.0176 4.54443 22.2444 5.12783C22.4156 5.56831 22.6192 6.23017 22.6748 7.44888C22.7349 8.76699 22.7477 9.16235 22.7477 12.5C22.7477 15.8376 22.7349 16.233 22.6748 17.551C22.6192 18.7697 22.4156 19.4316 22.2444 19.8721C22.0176 20.4555 21.7468 20.8719 21.3093 21.3093C20.8719 21.7468 20.4555 22.0176 19.8721 22.2444C19.4316 22.4156 18.7697 22.6192 17.551 22.6748C16.2332 22.7349 15.8378 22.7477 12.5 22.7477C9.16206 22.7477 8.76684 22.7349 7.44888 22.6748C6.23017 22.6192 5.56831 22.4156 5.12783 22.2444C4.54438 22.0176 4.12798 21.7468 3.69053 21.3093C3.25312 20.8719 2.98223 20.4555 2.75552 19.8721C2.58433 19.4316 2.38071 18.7697 2.3251 17.551C2.26494 16.233 2.25225 15.8376 2.25225 12.5C2.25225 9.16235 2.26494 8.76699 2.3251 7.44888C2.38071 6.23017 2.58433 5.56831 2.75552 5.12783C2.98223 4.54443 3.25312 4.12798 3.69053 3.69058C4.12798 3.25317 4.54438 2.98228 5.12783 2.75552C5.56831 2.58437 6.23017 2.38076 7.44888 2.32515C8.76699 2.26499 9.16235 2.25229 12.5 2.25229Z" fill="#3F8DA1"/>
</g>
<defs>
<clipPath id="clip0_654_2742">
<rect width="25" height="25" fill="white"/>
</clipPath>
</defs>
</svg>
