<svg width="23" height="25" viewBox="0 0 23 25" fill="none" xmlns="http://www.w3.org/2000/svg">
<path fill-rule="evenodd" clip-rule="evenodd" d="M11.5 0.125C8.08274 0.125 5.3125 2.89524 5.3125 6.3125C5.3125 9.72976 8.08274 12.5 11.5 12.5C14.9173 12.5 17.6875 9.72976 17.6875 6.3125C17.6875 2.89524 14.9173 0.125 11.5 0.125ZM7.5625 6.3125C7.5625 4.13788 9.32538 2.375 11.5 2.375C13.6746 2.375 15.4375 4.13788 15.4375 6.3125C15.4375 8.48712 13.6746 10.25 11.5 10.25C9.32538 10.25 7.5625 8.48712 7.5625 6.3125Z" fill="#156F84"/>
<path d="M7 14.75C3.27208 14.75 0.25 17.7721 0.25 21.5V23.75C0.25 24.3713 0.75368 24.875 1.375 24.875C1.99632 24.875 2.5 24.3713 2.5 23.75V21.5C2.5 19.0147 4.51472 17 7 17H16C18.4853 17 20.5 19.0147 20.5 21.5V23.75C20.5 24.3713 21.0037 24.875 21.625 24.875C22.2463 24.875 22.75 24.3713 22.75 23.75V21.5C22.75 17.7721 19.7279 14.75 16 14.75H7Z" fill="#156F84"/>
</svg>
