<svg width="28" height="27" viewBox="0 0 28 27" fill="none" xmlns="http://www.w3.org/2000/svg">
<path d="M13.2829 26.7626C13.2829 26.7626 13.2834 26.763 13.9997 25.875L14.7159 26.763C14.2946 27.079 13.7042 27.0786 13.2829 26.7626Z" fill="#3F8DA1"/>
<path fill-rule="evenodd" clip-rule="evenodd" d="M13.9997 6.75C11.4223 6.75 9.33301 8.76472 9.33301 11.25C9.33301 13.7353 11.4223 15.75 13.9997 15.75C16.577 15.75 18.6663 13.7353 18.6663 11.25C18.6663 8.76472 16.577 6.75 13.9997 6.75ZM11.6663 11.25C11.6663 10.0074 12.711 9 13.9997 9C15.2883 9 16.333 10.0074 16.333 11.25C16.333 12.4926 15.2883 13.5 13.9997 13.5C12.711 13.5 11.6663 12.4926 11.6663 11.25Z" fill="#3F8DA1"/>
<path fill-rule="evenodd" clip-rule="evenodd" d="M13.2829 26.7626L13.9997 25.875C14.7159 26.763 14.7172 26.7621 14.7172 26.7621L14.7194 26.7605L14.7266 26.755L14.7522 26.7356C14.7741 26.7189 14.8058 26.6947 14.8464 26.6634C14.9277 26.6007 15.0451 26.5092 15.1935 26.3911C15.4902 26.1549 15.9113 25.812 16.4154 25.3799C17.422 24.5171 18.7675 23.2921 20.1168 21.8463C21.4628 20.4042 22.8349 18.7189 23.8759 16.9344C24.9108 15.1602 25.6663 13.2068 25.6663 11.25C25.6663 8.26631 24.4372 5.40483 22.2493 3.29505C20.0613 1.18526 17.0939 0 13.9997 0C10.9055 0 7.93802 1.18526 5.75009 3.29505C3.56217 5.40483 2.33301 8.26631 2.33301 11.25C2.33301 13.2068 3.08856 15.1602 4.12346 16.9344C5.16442 18.7189 6.53654 20.4042 7.8825 21.8463C9.23184 23.2921 10.5774 24.5171 11.584 25.3799C12.0881 25.812 12.5091 26.1549 12.8058 26.3911C12.9542 26.5092 13.0717 26.6007 13.1529 26.6634C13.1936 26.6947 13.2252 26.7189 13.2472 26.7356L13.2728 26.755L13.28 26.7605L13.2829 26.7626ZM7.40001 4.88604C9.15035 3.19821 11.5243 2.25 13.9997 2.25C16.475 2.25 18.849 3.19821 20.5993 4.88604C22.3497 6.57387 23.333 8.86305 23.333 11.25C23.333 12.6682 22.7761 14.2304 21.8422 15.8313C20.9144 17.4218 19.6615 18.9708 18.3825 20.3412C17.1068 21.7079 15.8274 22.8735 14.8652 23.6982C14.5336 23.9825 14.2406 24.2254 13.9997 24.4213C13.7587 24.2254 13.4658 23.9825 13.1341 23.6982C12.172 22.8735 10.8925 21.7079 9.61685 20.3412C8.33781 18.9708 7.08492 17.4218 6.15714 15.8313C5.22329 14.2304 4.66634 12.6682 4.66634 11.25C4.66634 8.86305 5.64967 6.57387 7.40001 4.88604Z" fill="#3F8DA1"/>
</svg>
