<svg width="17" height="16" viewBox="0 0 17 16" fill="none" xmlns="http://www.w3.org/2000/svg">
<path fill-rule="evenodd" clip-rule="evenodd" d="M7.58203 0.666656C4.26832 0.666656 1.58203 3.35295 1.58203 6.66666C1.58203 9.98037 4.26832 12.6667 7.58203 12.6667C8.99871 12.6667 10.3007 12.1757 11.3272 11.3546L14.444 14.4714C14.7043 14.7317 15.1264 14.7317 15.3868 14.4714C15.6471 14.211 15.6471 13.7889 15.3868 13.5286L12.27 10.4118C13.091 9.38533 13.582 8.08333 13.582 6.66666C13.582 3.35295 10.8957 0.666656 7.58203 0.666656ZM2.91536 6.66666C2.91536 4.08933 5.0047 1.99999 7.58203 1.99999C10.1594 1.99999 12.2487 4.08933 12.2487 6.66666C12.2487 9.24399 10.1594 11.3333 7.58203 11.3333C5.0047 11.3333 2.91536 9.24399 2.91536 6.66666Z" fill="#222222"/>
</svg>
