<svg width="31" height="23" viewBox="0 0 31 23" fill="none" xmlns="http://www.w3.org/2000/svg">
<path fill-rule="evenodd" clip-rule="evenodd" d="M29.3502 1.75285C29.8312 2.26261 30.1766 2.89646 30.3518 3.59097C31 6.15435 31 11.5 31 11.5C31 11.5 31 16.8456 30.3518 19.409C30.1766 20.1035 29.8312 20.7374 29.3502 21.2471C28.8692 21.7569 28.2695 22.1247 27.6111 22.3137C25.1875 23 15.5 23 15.5 23C15.5 23 5.8125 23 3.38886 22.3137C2.73049 22.1247 2.13081 21.7569 1.64983 21.2471C1.16885 20.7374 0.823445 20.1035 0.648182 19.409C0 16.8456 0 11.5 0 11.5C0 11.5 0 6.15435 0.648182 3.59097C0.823445 2.89646 1.16885 2.26261 1.64983 1.75285C2.13081 1.24309 2.73049 0.8753 3.38886 0.68629C5.8125 0 15.5 0 15.5 0C15.5 0 25.1875 0 27.6111 0.68629C28.2695 0.8753 28.8692 1.24309 29.3502 1.75285ZM20.4318 11.5L12.3295 6.64591V16.3541L20.4318 11.5Z" fill="#3F8DA1"/>
</svg>
